<mxfile host="app.diagrams.net" modified="2020-08-21T20:06:19.956Z" agent="5.0 (Macintosh; Intel Mac OS X 10_15_5) AppleWebKit/537.36 (KHTML, like Gecko) Chrome/84.0.4147.125 Safari/537.36" etag="XJjG1dNDIa7MzlpnmD2i" version="13.6.4" type="github">
  <diagram id="C5RBs43oDa-KdzZeNtuy" name="Page-1">
    <mxGraphModel dx="1426" dy="826" grid="1" gridSize="10" guides="1" tooltips="1" connect="1" arrows="1" fold="1" page="1" pageScale="1" pageWidth="827" pageHeight="1169" math="0" shadow="0">
      <root>
        <mxCell id="WIyWlLk6GJQsqaUBKTNV-0" />
        <mxCell id="WIyWlLk6GJQsqaUBKTNV-1" parent="WIyWlLk6GJQsqaUBKTNV-0" />
        <mxCell id="WIyWlLk6GJQsqaUBKTNV-2" value="" style="rounded=0;html=1;jettySize=auto;orthogonalLoop=1;fontSize=11;endArrow=block;endFill=0;endSize=8;strokeWidth=1;shadow=0;labelBackgroundColor=none;edgeStyle=orthogonalEdgeStyle;" parent="WIyWlLk6GJQsqaUBKTNV-1" edge="1">
          <mxGeometry relative="1" as="geometry">
            <mxPoint x="370" y="60" as="sourcePoint" />
            <mxPoint x="370" y="120" as="targetPoint" />
          </mxGeometry>
        </mxCell>
        <mxCell id="Bc0MkM9AvcDSOn0Sa-QH-0" value="Save Data Into Array" style="rounded=1;whiteSpace=wrap;html=1;fontSize=12;glass=0;strokeWidth=1;shadow=0;" vertex="1" parent="WIyWlLk6GJQsqaUBKTNV-1">
          <mxGeometry x="310" y="120" width="120" height="40" as="geometry" />
        </mxCell>
        <mxCell id="Bc0MkM9AvcDSOn0Sa-QH-1" value="&lt;br&gt;&lt;br&gt;Get Json Data" style="shape=cylinder2;whiteSpace=wrap;html=1;boundedLbl=1;backgroundOutline=1;size=15;" vertex="1" parent="WIyWlLk6GJQsqaUBKTNV-1">
          <mxGeometry x="310" y="40" width="120" height="60" as="geometry" />
        </mxCell>
        <mxCell id="Bc0MkM9AvcDSOn0Sa-QH-2" value="Display&lt;br&gt;Contact Info list" style="shape=document;whiteSpace=wrap;html=1;boundedLbl=1;" vertex="1" parent="WIyWlLk6GJQsqaUBKTNV-1">
          <mxGeometry x="310" y="190" width="120" height="50" as="geometry" />
        </mxCell>
        <mxCell id="Bc0MkM9AvcDSOn0Sa-QH-3" value="" style="rounded=0;html=1;jettySize=auto;orthogonalLoop=1;fontSize=11;endArrow=block;endFill=0;endSize=8;strokeWidth=1;shadow=0;labelBackgroundColor=none;edgeStyle=orthogonalEdgeStyle;" edge="1" parent="WIyWlLk6GJQsqaUBKTNV-1">
          <mxGeometry relative="1" as="geometry">
            <mxPoint x="369.5" y="160" as="sourcePoint" />
            <mxPoint x="370" y="190" as="targetPoint" />
          </mxGeometry>
        </mxCell>
        <mxCell id="Bc0MkM9AvcDSOn0Sa-QH-4" value="Search Info" style="rounded=1;whiteSpace=wrap;html=1;" vertex="1" parent="WIyWlLk6GJQsqaUBKTNV-1">
          <mxGeometry x="180" y="368" width="120" height="42" as="geometry" />
        </mxCell>
        <mxCell id="Bc0MkM9AvcDSOn0Sa-QH-5" value="Edit Info" style="rounded=1;whiteSpace=wrap;html=1;" vertex="1" parent="WIyWlLk6GJQsqaUBKTNV-1">
          <mxGeometry x="310" y="368" width="120" height="42" as="geometry" />
        </mxCell>
        <mxCell id="Bc0MkM9AvcDSOn0Sa-QH-6" value="Check Detail Info" style="rounded=1;whiteSpace=wrap;html=1;" vertex="1" parent="WIyWlLk6GJQsqaUBKTNV-1">
          <mxGeometry x="50" y="368" width="120" height="42" as="geometry" />
        </mxCell>
        <mxCell id="Bc0MkM9AvcDSOn0Sa-QH-8" value="Add Info" style="rounded=1;whiteSpace=wrap;html=1;" vertex="1" parent="WIyWlLk6GJQsqaUBKTNV-1">
          <mxGeometry x="440" y="368" width="120" height="42" as="geometry" />
        </mxCell>
        <mxCell id="Bc0MkM9AvcDSOn0Sa-QH-9" value="Delete Info" style="rounded=1;whiteSpace=wrap;html=1;" vertex="1" parent="WIyWlLk6GJQsqaUBKTNV-1">
          <mxGeometry x="570" y="368" width="120" height="42" as="geometry" />
        </mxCell>
        <mxCell id="Bc0MkM9AvcDSOn0Sa-QH-10" value="" style="endArrow=classic;html=1;entryX=0.5;entryY=0;entryDx=0;entryDy=0;" edge="1" parent="WIyWlLk6GJQsqaUBKTNV-1" target="Bc0MkM9AvcDSOn0Sa-QH-6">
          <mxGeometry width="50" height="50" relative="1" as="geometry">
            <mxPoint x="370" y="311" as="sourcePoint" />
            <mxPoint x="369.5" y="341" as="targetPoint" />
            <Array as="points">
              <mxPoint x="110" y="311" />
            </Array>
          </mxGeometry>
        </mxCell>
        <mxCell id="Bc0MkM9AvcDSOn0Sa-QH-11" value="" style="endArrow=none;html=1;" edge="1" parent="WIyWlLk6GJQsqaUBKTNV-1">
          <mxGeometry width="50" height="50" relative="1" as="geometry">
            <mxPoint x="370" y="311" as="sourcePoint" />
            <mxPoint x="370" y="294" as="targetPoint" />
          </mxGeometry>
        </mxCell>
        <mxCell id="Bc0MkM9AvcDSOn0Sa-QH-12" value="" style="endArrow=classic;html=1;entryX=0.5;entryY=0;entryDx=0;entryDy=0;" edge="1" parent="WIyWlLk6GJQsqaUBKTNV-1" target="Bc0MkM9AvcDSOn0Sa-QH-9">
          <mxGeometry width="50" height="50" relative="1" as="geometry">
            <mxPoint x="370" y="311" as="sourcePoint" />
            <mxPoint x="640" y="311" as="targetPoint" />
            <Array as="points">
              <mxPoint x="630" y="311" />
            </Array>
          </mxGeometry>
        </mxCell>
        <mxCell id="Bc0MkM9AvcDSOn0Sa-QH-13" value="" style="endArrow=classic;html=1;entryX=0.5;entryY=0;entryDx=0;entryDy=0;" edge="1" parent="WIyWlLk6GJQsqaUBKTNV-1" target="Bc0MkM9AvcDSOn0Sa-QH-4">
          <mxGeometry width="50" height="50" relative="1" as="geometry">
            <mxPoint x="370" y="311" as="sourcePoint" />
            <mxPoint x="420" y="261" as="targetPoint" />
            <Array as="points">
              <mxPoint x="240" y="311" />
            </Array>
          </mxGeometry>
        </mxCell>
        <mxCell id="Bc0MkM9AvcDSOn0Sa-QH-14" value="" style="endArrow=classic;html=1;" edge="1" parent="WIyWlLk6GJQsqaUBKTNV-1">
          <mxGeometry width="50" height="50" relative="1" as="geometry">
            <mxPoint x="370" y="311" as="sourcePoint" />
            <mxPoint x="500" y="367" as="targetPoint" />
            <Array as="points">
              <mxPoint x="500" y="311" />
            </Array>
          </mxGeometry>
        </mxCell>
        <mxCell id="Bc0MkM9AvcDSOn0Sa-QH-15" value="" style="endArrow=classic;html=1;entryX=0.5;entryY=0;entryDx=0;entryDy=0;" edge="1" parent="WIyWlLk6GJQsqaUBKTNV-1" target="Bc0MkM9AvcDSOn0Sa-QH-5">
          <mxGeometry width="50" height="50" relative="1" as="geometry">
            <mxPoint x="370" y="311" as="sourcePoint" />
            <mxPoint x="420" y="261" as="targetPoint" />
          </mxGeometry>
        </mxCell>
        <mxCell id="Bc0MkM9AvcDSOn0Sa-QH-16" value="User Interaction" style="shape=hexagon;perimeter=hexagonPerimeter2;whiteSpace=wrap;html=1;fixedSize=1;" vertex="1" parent="WIyWlLk6GJQsqaUBKTNV-1">
          <mxGeometry x="310" y="260" width="120" height="35" as="geometry" />
        </mxCell>
        <mxCell id="Bc0MkM9AvcDSOn0Sa-QH-18" value="" style="endArrow=classic;html=1;entryX=0.5;entryY=0;entryDx=0;entryDy=0;" edge="1" parent="WIyWlLk6GJQsqaUBKTNV-1" target="Bc0MkM9AvcDSOn0Sa-QH-16">
          <mxGeometry width="50" height="50" relative="1" as="geometry">
            <mxPoint x="370" y="234" as="sourcePoint" />
            <mxPoint x="420" y="180" as="targetPoint" />
          </mxGeometry>
        </mxCell>
        <mxCell id="Bc0MkM9AvcDSOn0Sa-QH-19" value="Toggle &lt;br&gt;Detail info box" style="shape=document;whiteSpace=wrap;html=1;boundedLbl=1;" vertex="1" parent="WIyWlLk6GJQsqaUBKTNV-1">
          <mxGeometry x="50" y="440" width="120" height="70" as="geometry" />
        </mxCell>
        <mxCell id="Bc0MkM9AvcDSOn0Sa-QH-20" value="Filter Contact Info list&lt;br&gt;by search keyword" style="shape=document;whiteSpace=wrap;html=1;boundedLbl=1;" vertex="1" parent="WIyWlLk6GJQsqaUBKTNV-1">
          <mxGeometry x="180" y="440" width="120" height="70" as="geometry" />
        </mxCell>
        <mxCell id="Bc0MkM9AvcDSOn0Sa-QH-21" value="Open filled &lt;br&gt;Modal Popup with current contact info&lt;span style=&quot;color: rgba(0 , 0 , 0 , 0) ; font-family: monospace ; font-size: 0px&quot;&gt;th%3CmxGraphModel%3E%3Croot%3E%3CmxCell%20id%3D%220%22%2F%3E%3CmxCell%20id%3D%221%22%20parent%3D%220%22%2F%3E%3CmxCell%20id%3D%222%22%20value%3D%22Filter%20Contact%20Info%20list%26lt%3Bbr%26gt%3Bby%20search%20keyword%22%20style%3D%22shape%3Ddocument%3BwhiteSpace%3Dwrap%3Bhtml%3D1%3BboundedLbl%3D1%3B%22%20vertex%3D%221%22%20parent%3D%221%22%3E%3CmxGeometry%20x%3D%22210%22%20y%3D%22440%22%20width%3D%22120%22%20height%3D%2250%22%20as%3D%22geometry%22%2F%3E%3C%2FmxCell%3E%3C%2Froot%3E%3C%2FmxGraphModel%3E&lt;/span&gt;" style="shape=document;whiteSpace=wrap;html=1;boundedLbl=1;" vertex="1" parent="WIyWlLk6GJQsqaUBKTNV-1">
          <mxGeometry x="310" y="440" width="120" height="70" as="geometry" />
        </mxCell>
        <mxCell id="Bc0MkM9AvcDSOn0Sa-QH-22" value="Open empty &lt;br&gt;Modal Popup&lt;span style=&quot;color: rgba(0 , 0 , 0 , 0) ; font-family: monospace ; font-size: 0px&quot;&gt;%3CmxGraphModel%3E%3Croot%3E%3CmxCell%20id%3D%220%22%2F%3E%3CmxCell%20id%3D%221%22%20parent%3D%220%22%2F%3E%3CmxCell%20id%3D%222%22%20value%3D%22Filter%20Contact%20Info%20list%26lt%3Bbr%26gt%3Bby%20search%20keyword%22%20style%3D%22shape%3Ddocument%3BwhiteSpace%3Dwrap%3Bhtml%3D1%3BboundedLbl%3D1%3B%22%20vertex%3D%221%22%20parent%3D%221%22%3E%3CmxGeometry%20x%3D%22210%22%20y%3D%22440%22%20width%3D%22120%22%20height%3D%2250%22%20as%3D%22geometry%22%2F%3E%3C%2FmxCell%3E%3C%2Froot%3E%3C%2FmxGraphModel%3E&lt;/span&gt;" style="shape=document;whiteSpace=wrap;html=1;boundedLbl=1;" vertex="1" parent="WIyWlLk6GJQsqaUBKTNV-1">
          <mxGeometry x="440" y="440" width="120" height="70" as="geometry" />
        </mxCell>
        <mxCell id="Bc0MkM9AvcDSOn0Sa-QH-23" value="Open confirmation Modal popup&lt;span style=&quot;font-size: 0px ; font-family: monospace ; color: rgba(0 , 0 , 0 , 0)&quot;&gt;,%3CmxGraphModel%3E%3Croot%3E%3CmxCell%20id%3D%220%22%2F%3E%3CmxCell%20id%3D%221%22%20parent%3D%220%22%2F%3E%3CmxCell%20id%3D%222%22%20value%3D%22Filter%20Contact%20Info%20list%26lt%3Bbr%26gt%3Bby%20search%20keyword%22%20style%3D%22shape%3Ddocument%3BwhiteSpace%3Dwrap%3Bhtml%3D1%3BboundedLbl%3D1%3B%22%20vertex%3D%221%22%20parent%3D%221%22%3E%3CmxGeometry%20x%3D%22210%22%20y%3D%22440%22%20width%3D%22120%22%20height%3D%2250%22%20as%3D%22geometry%22%2F%3E%3C%2FmxCell%3E%3C%2Froot%3E%3C%2FmxGraphModel%3Emodal&amp;nbsp;&lt;br&gt;&lt;/span&gt;" style="shape=document;whiteSpace=wrap;html=1;boundedLbl=1;" vertex="1" parent="WIyWlLk6GJQsqaUBKTNV-1">
          <mxGeometry x="570" y="440" width="120" height="70" as="geometry" />
        </mxCell>
        <mxCell id="Bc0MkM9AvcDSOn0Sa-QH-24" value="" style="endArrow=classic;html=1;entryX=0.5;entryY=0;entryDx=0;entryDy=0;" edge="1" parent="WIyWlLk6GJQsqaUBKTNV-1" target="Bc0MkM9AvcDSOn0Sa-QH-19">
          <mxGeometry width="50" height="50" relative="1" as="geometry">
            <mxPoint x="110" y="410" as="sourcePoint" />
            <mxPoint x="120" y="420" as="targetPoint" />
          </mxGeometry>
        </mxCell>
        <mxCell id="Bc0MkM9AvcDSOn0Sa-QH-25" value="" style="endArrow=classic;html=1;entryX=0.5;entryY=0;entryDx=0;entryDy=0;" edge="1" parent="WIyWlLk6GJQsqaUBKTNV-1" target="Bc0MkM9AvcDSOn0Sa-QH-20">
          <mxGeometry width="50" height="50" relative="1" as="geometry">
            <mxPoint x="240" y="410" as="sourcePoint" />
            <mxPoint x="290" y="360" as="targetPoint" />
          </mxGeometry>
        </mxCell>
        <mxCell id="Bc0MkM9AvcDSOn0Sa-QH-28" value="" style="endArrow=classic;html=1;entryX=0.5;entryY=0;entryDx=0;entryDy=0;" edge="1" parent="WIyWlLk6GJQsqaUBKTNV-1" target="Bc0MkM9AvcDSOn0Sa-QH-21">
          <mxGeometry width="50" height="50" relative="1" as="geometry">
            <mxPoint x="370" y="410" as="sourcePoint" />
            <mxPoint x="420" y="360" as="targetPoint" />
          </mxGeometry>
        </mxCell>
        <mxCell id="Bc0MkM9AvcDSOn0Sa-QH-29" value="" style="endArrow=classic;html=1;entryX=0.5;entryY=0;entryDx=0;entryDy=0;exitX=0.5;exitY=1;exitDx=0;exitDy=0;" edge="1" parent="WIyWlLk6GJQsqaUBKTNV-1" source="Bc0MkM9AvcDSOn0Sa-QH-8" target="Bc0MkM9AvcDSOn0Sa-QH-22">
          <mxGeometry width="50" height="50" relative="1" as="geometry">
            <mxPoint x="500" y="420" as="sourcePoint" />
            <mxPoint x="540" y="360" as="targetPoint" />
          </mxGeometry>
        </mxCell>
        <mxCell id="Bc0MkM9AvcDSOn0Sa-QH-30" value="" style="endArrow=classic;html=1;entryX=0.5;entryY=0;entryDx=0;entryDy=0;exitX=0.5;exitY=1;exitDx=0;exitDy=0;" edge="1" parent="WIyWlLk6GJQsqaUBKTNV-1" source="Bc0MkM9AvcDSOn0Sa-QH-9" target="Bc0MkM9AvcDSOn0Sa-QH-23">
          <mxGeometry width="50" height="50" relative="1" as="geometry">
            <mxPoint x="510" y="417" as="sourcePoint" />
            <mxPoint x="510" y="447" as="targetPoint" />
          </mxGeometry>
        </mxCell>
        <mxCell id="Bc0MkM9AvcDSOn0Sa-QH-32" value="" style="endArrow=classic;html=1;" edge="1" parent="WIyWlLk6GJQsqaUBKTNV-1">
          <mxGeometry width="50" height="50" relative="1" as="geometry">
            <mxPoint x="630" y="500" as="sourcePoint" />
            <mxPoint x="630" y="540" as="targetPoint" />
          </mxGeometry>
        </mxCell>
        <mxCell id="Bc0MkM9AvcDSOn0Sa-QH-33" value="Delete?" style="rhombus;whiteSpace=wrap;html=1;" vertex="1" parent="WIyWlLk6GJQsqaUBKTNV-1">
          <mxGeometry x="590" y="540" width="80" height="30" as="geometry" />
        </mxCell>
        <mxCell id="Bc0MkM9AvcDSOn0Sa-QH-35" value="" style="endArrow=classic;html=1;exitX=0.5;exitY=1;exitDx=0;exitDy=0;" edge="1" parent="WIyWlLk6GJQsqaUBKTNV-1" source="Bc0MkM9AvcDSOn0Sa-QH-33">
          <mxGeometry width="50" height="50" relative="1" as="geometry">
            <mxPoint x="629.5" y="600" as="sourcePoint" />
            <mxPoint x="629.5" y="630" as="targetPoint" />
          </mxGeometry>
        </mxCell>
        <mxCell id="Bc0MkM9AvcDSOn0Sa-QH-37" value="YES" style="text;html=1;align=center;verticalAlign=middle;whiteSpace=wrap;rounded=0;fillColor=#FFFFFF;" vertex="1" parent="WIyWlLk6GJQsqaUBKTNV-1">
          <mxGeometry x="610" y="585" width="40" height="20" as="geometry" />
        </mxCell>
        <mxCell id="Bc0MkM9AvcDSOn0Sa-QH-41" value="" style="text;html=1;align=center;verticalAlign=middle;whiteSpace=wrap;rounded=0;fillColor=#FFFFFF;" vertex="1" parent="WIyWlLk6GJQsqaUBKTNV-1">
          <mxGeometry x="720" y="545" width="40" height="20" as="geometry" />
        </mxCell>
        <mxCell id="Bc0MkM9AvcDSOn0Sa-QH-42" value="&lt;span&gt;Remove Item&lt;/span&gt;&lt;br&gt;&lt;span&gt;from Array&lt;/span&gt;" style="rounded=1;whiteSpace=wrap;html=1;fillColor=#FFFFFF;" vertex="1" parent="WIyWlLk6GJQsqaUBKTNV-1">
          <mxGeometry x="570" y="630" width="120" height="40" as="geometry" />
        </mxCell>
        <mxCell id="Bc0MkM9AvcDSOn0Sa-QH-43" value="Back to&amp;nbsp;&lt;br&gt;List" style="rounded=1;whiteSpace=wrap;html=1;fillColor=#FFFFFF;" vertex="1" parent="WIyWlLk6GJQsqaUBKTNV-1">
          <mxGeometry x="720" y="532.5" width="70" height="45" as="geometry" />
        </mxCell>
        <mxCell id="Bc0MkM9AvcDSOn0Sa-QH-49" value="" style="endArrow=classic;html=1;entryX=0;entryY=0.5;entryDx=0;entryDy=0;exitX=1;exitY=0.5;exitDx=0;exitDy=0;" edge="1" parent="WIyWlLk6GJQsqaUBKTNV-1" source="Bc0MkM9AvcDSOn0Sa-QH-33" target="Bc0MkM9AvcDSOn0Sa-QH-43">
          <mxGeometry width="50" height="50" relative="1" as="geometry">
            <mxPoint x="670" y="560" as="sourcePoint" />
            <mxPoint x="720" y="510" as="targetPoint" />
          </mxGeometry>
        </mxCell>
        <mxCell id="Bc0MkM9AvcDSOn0Sa-QH-39" value="NO" style="text;html=1;strokeColor=none;align=center;verticalAlign=middle;whiteSpace=wrap;rounded=0;fillColor=#FFFFFF;spacing=0;" vertex="1" parent="WIyWlLk6GJQsqaUBKTNV-1">
          <mxGeometry x="682" y="545" width="21" height="20" as="geometry" />
        </mxCell>
        <mxCell id="Bc0MkM9AvcDSOn0Sa-QH-50" value="" style="endArrow=classic;html=1;" edge="1" parent="WIyWlLk6GJQsqaUBKTNV-1">
          <mxGeometry width="50" height="50" relative="1" as="geometry">
            <mxPoint x="500" y="500" as="sourcePoint" />
            <mxPoint x="500" y="540" as="targetPoint" />
          </mxGeometry>
        </mxCell>
        <mxCell id="Bc0MkM9AvcDSOn0Sa-QH-51" value="Add?" style="rhombus;whiteSpace=wrap;html=1;" vertex="1" parent="WIyWlLk6GJQsqaUBKTNV-1">
          <mxGeometry x="460" y="540" width="80" height="30" as="geometry" />
        </mxCell>
        <mxCell id="Bc0MkM9AvcDSOn0Sa-QH-52" value="" style="endArrow=classic;html=1;exitX=0.5;exitY=1;exitDx=0;exitDy=0;" edge="1" parent="WIyWlLk6GJQsqaUBKTNV-1" source="Bc0MkM9AvcDSOn0Sa-QH-51">
          <mxGeometry width="50" height="50" relative="1" as="geometry">
            <mxPoint x="499.5" y="600" as="sourcePoint" />
            <mxPoint x="499.5" y="630" as="targetPoint" />
          </mxGeometry>
        </mxCell>
        <mxCell id="Bc0MkM9AvcDSOn0Sa-QH-53" value="YES" style="text;html=1;align=center;verticalAlign=middle;whiteSpace=wrap;rounded=0;fillColor=#FFFFFF;" vertex="1" parent="WIyWlLk6GJQsqaUBKTNV-1">
          <mxGeometry x="480" y="585" width="40" height="20" as="geometry" />
        </mxCell>
        <mxCell id="Bc0MkM9AvcDSOn0Sa-QH-54" value="&lt;span&gt;Add Item&lt;/span&gt;&lt;br&gt;&lt;span&gt;to Array&lt;/span&gt;" style="rounded=1;whiteSpace=wrap;html=1;fillColor=#FFFFFF;" vertex="1" parent="WIyWlLk6GJQsqaUBKTNV-1">
          <mxGeometry x="440" y="630" width="120" height="40" as="geometry" />
        </mxCell>
        <mxCell id="Bc0MkM9AvcDSOn0Sa-QH-55" value="" style="endArrow=classic;html=1;" edge="1" parent="WIyWlLk6GJQsqaUBKTNV-1">
          <mxGeometry width="50" height="50" relative="1" as="geometry">
            <mxPoint x="370" y="500" as="sourcePoint" />
            <mxPoint x="370" y="540" as="targetPoint" />
          </mxGeometry>
        </mxCell>
        <mxCell id="Bc0MkM9AvcDSOn0Sa-QH-56" value="Edit?" style="rhombus;whiteSpace=wrap;html=1;" vertex="1" parent="WIyWlLk6GJQsqaUBKTNV-1">
          <mxGeometry x="330" y="540" width="80" height="30" as="geometry" />
        </mxCell>
        <mxCell id="Bc0MkM9AvcDSOn0Sa-QH-57" value="" style="endArrow=classic;html=1;exitX=0.5;exitY=1;exitDx=0;exitDy=0;" edge="1" parent="WIyWlLk6GJQsqaUBKTNV-1" source="Bc0MkM9AvcDSOn0Sa-QH-56">
          <mxGeometry width="50" height="50" relative="1" as="geometry">
            <mxPoint x="369.5" y="600" as="sourcePoint" />
            <mxPoint x="369.5" y="630" as="targetPoint" />
          </mxGeometry>
        </mxCell>
        <mxCell id="Bc0MkM9AvcDSOn0Sa-QH-58" value="YES" style="text;html=1;align=center;verticalAlign=middle;whiteSpace=wrap;rounded=0;fillColor=#FFFFFF;" vertex="1" parent="WIyWlLk6GJQsqaUBKTNV-1">
          <mxGeometry x="350" y="585" width="40" height="20" as="geometry" />
        </mxCell>
        <mxCell id="Bc0MkM9AvcDSOn0Sa-QH-59" value="&lt;span&gt;Replace Item&lt;/span&gt;&lt;br&gt;&lt;span&gt;in Array&lt;/span&gt;" style="rounded=1;whiteSpace=wrap;html=1;fillColor=#FFFFFF;" vertex="1" parent="WIyWlLk6GJQsqaUBKTNV-1">
          <mxGeometry x="310" y="630" width="120" height="40" as="geometry" />
        </mxCell>
        <mxCell id="Bc0MkM9AvcDSOn0Sa-QH-61" value="" style="endArrow=classic;html=1;" edge="1" parent="WIyWlLk6GJQsqaUBKTNV-1">
          <mxGeometry width="50" height="50" relative="1" as="geometry">
            <mxPoint x="499" y="516" as="sourcePoint" />
            <mxPoint x="755" y="529.5" as="targetPoint" />
            <Array as="points">
              <mxPoint x="755" y="516" />
            </Array>
          </mxGeometry>
        </mxCell>
        <mxCell id="Bc0MkM9AvcDSOn0Sa-QH-60" value="NO" style="text;html=1;strokeColor=none;align=center;verticalAlign=middle;whiteSpace=wrap;rounded=0;fillColor=#FFFFFF;spacing=0;" vertex="1" parent="WIyWlLk6GJQsqaUBKTNV-1">
          <mxGeometry x="540" y="505.5" width="21" height="20" as="geometry" />
        </mxCell>
        <mxCell id="Bc0MkM9AvcDSOn0Sa-QH-64" value="" style="endArrow=classic;html=1;entryX=0.5;entryY=0;entryDx=0;entryDy=0;" edge="1" parent="WIyWlLk6GJQsqaUBKTNV-1">
          <mxGeometry width="50" height="50" relative="1" as="geometry">
            <mxPoint x="369" y="522" as="sourcePoint" />
            <mxPoint x="755" y="534.5" as="targetPoint" />
            <Array as="points">
              <mxPoint x="755" y="522" />
            </Array>
          </mxGeometry>
        </mxCell>
        <mxCell id="Bc0MkM9AvcDSOn0Sa-QH-66" value="NO" style="text;html=1;strokeColor=none;align=center;verticalAlign=middle;whiteSpace=wrap;rounded=0;fillColor=#FFFFFF;spacing=0;" vertex="1" parent="WIyWlLk6GJQsqaUBKTNV-1">
          <mxGeometry x="390" y="512.5" width="21" height="20" as="geometry" />
        </mxCell>
      </root>
    </mxGraphModel>
  </diagram>
</mxfile>
